<svg width="224" height="144" viewBox="0 0 224 144" fill="none" xmlns="http://www.w3.org/2000/svg">
<path d="M22 68.2H44V142H24V134L23.6 133.8C21.6 140 17.6 143.2 12.8 143.2C5.4 143.2 1.41561e-07 135.2 1.41561e-07 121.2V22.8C1.41561e-07 9 9.6 0.799994 22.2 0.799994C34.8 0.799994 44 8.8 44 22.8V55H24V21.8C24 19.8 23.4 18.8 22 18.8C20.6 18.8 20 19.8 20 21.8V123C20 125 20.6 126 22 126C23.4 126 24 125 24 123V86.2H22V68.2ZM68.0469 1.99999V142H48.0469V1.99999H68.0469ZM116.07 1.99999V121.2C116.07 135.2 106.87 143.2 94.0703 143.2C81.2703 143.2 72.0703 135.2 72.0703 121.2V1.99999H92.0703V122.2C92.0703 124.2 92.6703 125.2 94.0703 125.2C95.4703 125.2 96.0703 124.2 96.0703 122.2V1.99999H116.07ZM120.117 1.99999H140.117V124H148.517V142H120.117V1.99999ZM171.563 1.99999V142H151.563V1.99999H171.563ZM212.586 1.99999L223.586 142H201.586L200.386 108.6H194.786L193.586 142H173.586L184.586 1.99999H212.586ZM195.386 90.6H199.786L198.386 48.2L197.786 24H197.386L196.786 48.2L195.386 90.6Z" fill="#E8E8E8"/>
</svg>
