<svg width="212" height="144" viewBox="0 0 212 144" fill="none" xmlns="http://www.w3.org/2000/svg">
<path d="M48.8 1.99999L38.4 142H10.4L0 1.99999H22L25.2 120H25.6L28.8 1.99999H48.8ZM70.8281 1.99999V142H50.8281V1.99999H70.8281ZM113.852 1.99999V20H103.852V142H83.8516V20H73.8516V1.99999H113.852ZM160.844 22.8V121.2C160.844 135.2 151.644 143.2 138.844 143.2C126.044 143.2 116.844 135.2 116.844 121.2V22.8C116.844 9 126.444 0.799994 139.044 0.799994C151.644 0.799994 160.844 8.8 160.844 22.8ZM140.844 21.8C140.844 19.8 140.244 18.8 138.844 18.8C137.444 18.8 136.844 19.8 136.844 21.8V122.2C136.844 124.2 137.444 125.2 138.844 125.2C140.244 125.2 140.844 124.2 140.844 122.2V21.8ZM188.891 83C188.891 81 188.291 80 186.891 80H184.891V142H164.891V1.99999H187.091C201.691 1.99999 208.891 8 208.891 22V50.4C208.891 62.4 208.091 68.2 200.491 70.8V71.2C208.091 73.6 208.891 79.6 208.891 91.6V123.6C208.891 132.6 209.091 135.4 211.291 141.6V142H190.691C189.291 136.6 188.891 133 188.891 123.8V83ZM188.891 23C188.891 21 188.291 20 186.891 20H184.891V62H186.891C188.291 62 188.891 61 188.891 59V23Z" fill="#E8E8E8"/>
</svg>
